<svg xmlns="http://www.w3.org/2000/svg" version="1.1" xmlns:xlink="http://www.w3.org/1999/xlink" xmlns:svgjs="http://svgjs.dev/svgjs" width="1440" height="560" preserveAspectRatio="none" viewBox="0 0 1440 560"><g mask="url(&quot;#SvgjsMask1011&quot;)" fill="none"><rect width="1440" height="560" x="0" y="0" fill="rgba(75, 165, 202, 1)"></rect><path d="M0,364.058C67.926,359.211,128.198,325.437,185.246,288.249C241.973,251.27,298.469,210.716,328.406,149.978C358.797,88.32,373.478,14.743,352.288,-50.651C332.079,-113.019,257.35,-136.518,218.468,-189.304C174.626,-248.824,174.859,-340.859,111.04,-378.168C45.406,-416.538,-38.978,-402.538,-112.376,-382.716C-186.825,-362.61,-259.507,-326.712,-306.343,-265.448C-351.984,-205.747,-361.472,-127.531,-364.856,-52.458C-367.994,17.148,-353.017,84.626,-324.999,148.422C-296.65,212.971,-261.8,276.982,-203.055,315.959C-143.896,355.211,-70.816,369.112,0,364.058" fill="#3288ab"></path><path d="M1440 1184.614C1554.779 1176.02 1625.212 1059.2640000000001 1713.075 984.913 1788.7939999999999 920.8389999999999 1878.718 869.399 1919.405 778.937 1959.9850000000001 688.712 1934.424 587.56 1936.281 488.646 1938.545 368.03200000000004 2007.2150000000001 228.027 1931.511 134.103 1856.29 40.77800000000002 1705.676 78.53899999999999 1587.875 56.386000000000024 1483.478 36.75400000000002 1379.899-21.567000000000007 1278.91 11.379000000000019 1178.618 44.09699999999998 1128.997 150.959 1058.212 229.17899999999997 985.62 309.39599999999996 883.293 371.119 858.144 476.342 832.333 584.334 872.245 697.3340000000001 922.675 796.255 971.682 892.384 1053.025 963.095 1139.316 1027.874 1231.577 1097.135 1324.9569999999999 1193.228 1440 1184.614" fill="#76bad7"></path></g><defs><mask id="SvgjsMask1011"><rect width="1440" height="560" fill="#ffffff"></rect></mask></defs></svg>